<?xml version="1.0" encoding="UTF-8" standalone="no"?>
<!DOCTYPE svg PUBLIC "-//W3C//DTD SVG 1.1//EN" "http://www.w3.org/Graphics/SVG/1.1/DTD/svg11.dtd">
<!-- Created with Vectornator (http://vectornator.io/) -->
<svg height="100%" stroke-miterlimit="10" style="fill-rule:nonzero;clip-rule:evenodd;stroke-linecap:round;stroke-linejoin:round;" version="1.1" viewBox="0 0 792 612" width="100%" xml:space="preserve" xmlns="http://www.w3.org/2000/svg" xmlns:vectornator="http://vectornator.io" xmlns:xlink="http://www.w3.org/1999/xlink">
<defs/>
<g id="Capa-1" vectornator:layerName="Capa 1">
<path d="M535.722 167.853L567.138 469.163C567.138 477.183 560.637 483.685 552.617 483.685L228.295 483.685C220.275 483.685 213.773 477.183 213.773 469.163L247.15 169.552C247.15 161.532 535.722 159.833 535.722 167.853Z" fill="#f9c300" fill-opacity="0.925416" fill-rule="nonzero" opacity="1" stroke="#403e35" stroke-linecap="butt" stroke-linejoin="miter" stroke-opacity="0.93" stroke-width="20"/>
</g>
<g id="Capa-2" vectornator:layerName="Capa 2">
<path d="M417.255 326.74C417.255 321.972 420.704 318.108 424.959 318.108C429.214 318.108 432.663 321.972 432.663 326.74C432.663 331.507 429.214 335.372 424.959 335.372C420.704 335.372 417.255 331.507 417.255 326.74Z" fill="#000000" fill-rule="nonzero" opacity="1" stroke="#000000" stroke-linecap="butt" stroke-linejoin="miter" stroke-opacity="0.93" stroke-width="20"/>
<path d="M398.777 397.688C385.005 401.048 372.908 410.406 370.091 418.446L433.995 402.106C426.314 397.289 412.548 394.327 398.777 397.688Z" fill="#000000" fill-rule="nonzero" opacity="1" stroke="#000000" stroke-linecap="butt" stroke-linejoin="miter" stroke-opacity="0.93" stroke-width="20"/>
<path d="M310.025 330.029C310.025 325.261 313.474 321.397 317.729 321.397C321.984 321.397 325.433 325.261 325.433 330.029C325.433 334.796 321.984 338.661 317.729 338.661C313.474 338.661 310.025 334.796 310.025 330.029Z" fill="#000000" fill-rule="nonzero" opacity="1" stroke="#000000" stroke-linecap="butt" stroke-linejoin="miter" stroke-opacity="0.93" stroke-width="20"/>
<path d="M305.071 195.941C305.071 195.941 280.963 61.7964 384.681 58.5775C478.704 55.6596 463.187 198.762 463.187 198.762" fill="none" opacity="1" stroke="#000000" stroke-linecap="butt" stroke-linejoin="miter" stroke-opacity="0.93" stroke-width="20"/>
</g>
</svg>
